<svg xmlns="http://www.w3.org/2000/svg" viewBox="0 0 100 100">
  <circle cx="50" cy="50" r="50" fill="#0e0e0e"/>
  <!-- Fan blade 1 -->
  <path d="M50 50 Q55 30 65 20 Q75 15 72 28 Q68 38 50 50Z" fill="#00e5ff" opacity="0.9"/>
  <!-- Fan blade 2 -->
  <path d="M50 50 Q70 55 80 65 Q85 75 72 72 Q62 68 50 50Z" fill="#00e5ff" opacity="0.9"/>
  <!-- Fan blade 3 -->
  <path d="M50 50 Q45 70 35 80 Q25 85 28 72 Q32 62 50 50Z" fill="#00e5ff" opacity="0.9"/>
  <!-- Fan blade 4 -->
  <path d="M50 50 Q30 45 20 35 Q15 25 28 28 Q38 32 50 50Z" fill="#00e5ff" opacity="0.9"/>
  <!-- Center hub -->
  <circle cx="50" cy="50" r="8" fill="#0e0e0e"/>
  <circle cx="50" cy="50" r="5" fill="#00e5ff"/>
</svg>
